<svg xmlns="http://www.w3.org/2000/svg" viewBox="0 0 461.76 296.27"><defs><style>.cls-1{fill:#1d1d1b;}</style></defs><g id="Camada_2" data-name="Camada 2"><g id="Layer_1" data-name="Layer 1"><path class="cls-1" d="M143.92,257.4c-.11-1.38-.14-4.51-.14-4.51l-.26-2.4c-.09-1.3-.14-4.39-.14-4.39.1-1.65,0-4,0-4-1.08-8.29-2.32-16.56-3.27-24.86-.8-6.89-1.27-13.82-1.88-20.72-.75-8.45-1.52-16.88-2.24-25.33-.45-5.28-.79-10.57-1.25-15.85-.71-8-1.51-16.1-2.22-24.16q-1-11.09-1.8-22.18c-.76-9.8-1.45-19.59-2.24-29.39l-.08-3.26a16.18,16.18,0,0,1-1-4.84l-.14-1.84c-.11-2.46-.22-4.93-.2-7.89,1-1,1.82-2,2.68-2,4.61-.16,9.23-.08,13.84-.09q93.75-.23,187.5-.53c3,0,4.64.53,4.51,3.76-.12,3.4-.24,6.8-.64,10.53a78.76,78.76,0,0,0-.79,8.12c-.18,3.63-.38,7-.58,10.37-.25,4-.38,8.11-.76,12.14-.85,9.12-1.86,18.22-2.71,27.33-.69,7.3-1.2,14.61-1.89,21.91-.86,9.21-1.9,18.41-2.73,27.62-.71,7.88-1.14,15.78-1.85,23.66-1.1,12.1-2.34,24.18-3.51,36.27-.91,9.92-1.83,19.83-2.69,29.75a2.87,2.87,0,0,1-2.42,3c-12.21,3.3-24.38,6.73-36.57,10.09-14.43,4-28.88,7.87-43.27,11.95-5,1.43-9.53-.46-14.14-1.68-8.38-2.22-16.71-4.61-25-7-8-2.25-15.94-4.58-23.92-6.8-7.62-2.13-15.2-4.42-22.91-6.12-3.44-.76-4.55-2.28-4.18-5.48.08-.76,0-1.55.07-2.84-.3-3.17-.75-5.82-1.19-8.47m66.8-101.69c-3.49,0-7-.14-10.46,0-2.68.14-3.79-.73-4-3.54-.43-6.56-1.16-13.1-1.83-19.65-.37-3.54-.42-3.56,3.21-3.56l80.79,0c4.56,0,9.11-.11,13.66,0,2,0,3-.56,3.15-2.74.5-6.85,1.09-13.7,1.83-20.53.27-2.56-.41-3.39-3.07-3.35-11.81.14-23.63.09-35.45.08q-44.91,0-89.81-.11c-2,0-3.87-.28-3.52,2.93,1,9.14,1.73,18.3,2.58,27.45,1.39,14.84,2.94,29.66,4.12,44.51.44,5.56.75,4.7,5.27,4.69q41.41,0,82.83-.06c3.37,0,3.61.35,3.29,3.71-.81,8.57-1.62,17.14-2.32,25.72-.38,4.58-.29,4.58-4.71,5.77-7.08,1.92-14.13,4-21.25,5.7A15.24,15.24,0,0,1,228,223c-8.31-2.13-16.53-4.6-24.73-7.11-.72-.22-1.44-1.61-1.54-2.53-.57-5.38-1-10.79-1.36-16.19-.13-1.84-.86-2.46-2.71-2.43-7.17.08-14.34.11-21.51,0-2.52,0-3,1.07-2.68,3.18.38,2.88.73,5.76,1,8.65.77,9.07,1.52,18.13,2.2,27.2a3.15,3.15,0,0,0,2.6,3.28c4.47,1.23,8.88,2.65,13.33,3.91,10,2.84,20.05,5.8,30.16,8.34,3.55.89,7,3.06,11,1.66,2.63-.93,5.36-1.6,8.06-2.35,13.3-3.68,26.58-7.39,39.91-11,2.94-.79,4.14-2.35,4.37-5.45,1.17-15.83,2.52-31.65,3.87-47.46Q291,171.8,292.35,159c.27-2.6-.59-3.28-3.17-3.27C263.22,155.76,237.26,155.72,210.72,155.71Z"/><path class="cls-1" d="M128.1,81.07h.51c.79,9.79,1.37,18.16,2.13,28,.57,7.4,1.15,14.8,1.8,22.19.7,8.05,1.51,16.1,2.22,24.16.46,5.28.8,10.57,1.25,15.85.72,8.44,1.49,16.88,2.24,25.32.61,6.91,1.08,13.83,1.87,20.72,1,8.31,3.17,24,3.17,24l-.33.15-.63.09s-4.1,1.06-4.18,1.07q-14.84,4.47-29.74,8.71-14.09,4-28.21,7.79A8.34,8.34,0,0,1,76,259c-19.75-5.43-39.46-11-59.21-16.39-1.84-.51-2.72-1.25-2.89-3.27-1-12.52-2.24-25-3.34-37.55-1.95-22-3.84-43.93-5.8-65.89C3.25,118.8,1.71,101.66.05,84.53c-.25-2.61.41-3.32,3-3.32q56.21.12,112.41.06c3.38,0,6.75.07,10.13,0l1.7-.11M78.75,154.57c-3.09,0-6.2,0-9.29,0-1.51,0-2.1.53-2,2,.16,4.93.36,9.86.35,14.8,0,2.37,1,2.9,3.18,2.87,7.46-.11,14.92,0,22.38-.1,2.2,0,2.89.75,2.74,2.88-.5,7.14-.8,14.3-1.44,21.43-.08.93-1.48,2.2-2.52,2.52-3.86,1.21-7.79,2.19-11.74,3.07-2.21.49-4.61,1.18-6.73.77-4.23-.83-8.33-2.38-12.48-3.61-4.47-1.32-4.58-1.3-4.76-6-.1-2.46-1-3.45-3.52-3.38-4.36.13-8.72.15-13.08,0-2.32-.1-2.78.79-2.62,2.89.46,5.68.85,11.38,1.06,17.07.07,2,1.24,2.67,2.78,3.14,9.51,2.9,19,5.88,28.55,8.63,2.62.75,5.65,1.66,8.12,1,10.84-2.78,21.51-6.21,32.32-9.14,2.92-.79,3.76-2.23,3.92-5.06.72-12.74,1.67-25.47,2.4-38.22a5,5,0,0,0-1.39-3.36,65.08,65.08,0,0,0-5.61-4.6,24.35,24.35,0,0,1,3.3-2.49c2.95-1.48,3.88-3.95,4.09-7,.77-11.29,1.63-22.58,2.45-33.87.15-2,.29-4,.46-6.32h-4.06l-74.09,0a26.45,26.45,0,0,0-4.63.07c-.72.13-1.86,1.18-1.82,1.74.57,7.81,1.34,15.6,2,23.4.15,1.83,1.06,2.21,2.67,2.16,3.09-.1,6.19-.08,9.29-.09,6.35,0,6.42,0,6.37-6.42,0-2,.48-2.77,2.58-2.76q18.59.1,37.19,0c2.07,0,2.74.74,2.59,2.74-.43,5.79-.82,11.58-1.09,17.37-.08,1.81-1,2-2.44,2C89.21,154.54,84.27,154.57,78.75,154.57Z"/><path class="cls-1" d="M320.39,241.11c1-12.26,2.21-24.34,3.31-36.44.71-7.88,1.14-15.78,1.85-23.66.83-9.21,1.87-18.41,2.73-27.62.69-7.3,1.2-14.61,1.89-21.91.85-9.11,1.86-18.21,2.71-27.33.38-4,.51-8.09.76-12.14.2-3.37.4-6.74.7-10.38a1.37,1.37,0,0,1,.78-.42C349.54,81.13,364,81,378.39,81q39.94-.08,79.88,0c3.41,0,3.72.48,3.39,3.9-.87,9-1.6,17.92-2.45,26.88s-1.79,18.08-2.65,27.13q-1.05,11-2,22-2.82,32.23-5.61,64.47c-.35,4.15-.71,8.29-1,12.44-.16,2.63-1.54,3.89-4,4.57-12.2,3.34-24.35,6.79-36.53,10.19-7.25,2-14.44,4.33-21.8,5.81-2.9.59-6.26-.47-9.29-1.26-8.86-2.34-17.66-4.9-26.48-7.4-9.77-2.76-19.52-5.56-29.48-8.51M378,209.94c4.32,1.42,8.62,2.9,13,4.21,1.81.55,3.86,1.39,5.55,1,8.75-2,17.42-4.45,26.14-6.63,1.9-.48,2.62-1.4,2.84-3.36,1.39-12.3,2.94-24.59,4.4-36.89.61-5.15,1.15-10.31,1.77-16h-5.35c-11.53,0-23.06-.08-34.58,0-2.33,0-3.1-.67-2.86-3,.43-4,.79-8.1.92-12.16.07-2.47.9-3.25,3.45-3.22,11.62.16,23.24.08,34.87.1,6.08,0,6.08,0,6.95-5.86.12-.76.25-1.53.35-2.29.37-2.92.74-5.85,1.16-9.12H394.29c-6,0-12,.07-18,0-1.88,0-2.47.6-2.57,2.48-.24,4.64-.77,9.26-1.13,13.89-.83,10.81-1.57,21.62-2.45,32.43-.37,4.58-.49,4.55,4.06,4.56q17,0,34,0c3.9,0,3.92,0,3.54,3.8-.48,4.81-.89,9.64-1.52,14.43-.83,6.43-.9,6.47-7.21,8-2.33.55-4.8,1.42-7.07,1.1a36.37,36.37,0,0,1-8.77-2.94,3.46,3.46,0,0,1-1.65-2.5,32.06,32.06,0,0,1,.3-5.78c.17-1.67-.29-2.56-2.16-2.55-4.36,0-8.72-.14-13.07,0a2.89,2.89,0,0,0-2,1.92q-1,9.39-1.46,18.82a3.22,3.22,0,0,0,1.63,2.46c2.86,1.16,5.85,2,9.24,3.08m-14.53-89.68c.78-2.86-.36-3.72-3.22-3.56-3.95.22-7.93.09-11.9,0-1.6,0-2.18.57-2.28,2.18-1.36,22.12-2.81,44.22-4.16,66.34-.46,7.45-.37,7.42-7.42,9.51-.86.25-2.11,1.15-2.17,1.84-.47,5.27-.68,10.56-1,16,.87-.11,1.35-.11,1.8-.22,6.63-1.75,13.26-3.48,19.88-5.27,4.8-1.3,4.75-1.34,5-6.4q.33-7.26.83-14.5C360.3,164.4,361.86,142.59,363.42,120.26Z"/><path class="cls-1" d="M278.28,33.62C278.2,40,278.2,40,272.05,40h-6.74V22l-1-.39-8.56,12.8c-2.9-4.48-5.68-8.79-8.47-13.09l-.71.1V40c-4.3,0-8.13.08-11.94-.12-.43,0-1.13-1.59-1.13-2.44,0-8.9.21-17.8.27-26.71,0-2.7-.14-5.41-.32-8.11C233.38.84,234,.08,235.81.12c3.19.07,6.39-.09,9.58.13a4.17,4.17,0,0,1,2.72,1.64c1.87,2.69,3.48,5.56,5.24,8.33.7,1.09,1.52,2.09,2.7,3.68,2.28-3.6,4.42-6.55,6.08-9.75,1.5-2.89,3.3-4.52,6.74-4.08a35.76,35.76,0,0,0,6.38.06c2.22-.11,3.07.64,3.05,3C278.19,13.19,278.27,23.26,278.28,33.62Z"/><path class="cls-1" d="M159.51,13c3.41.22,6.6.28,9.78.3,1.68,0,2.44-.77,2.33-2.52-.18-2.71-.16-5.42-.32-8.13C171.2,1,171.61.05,173.49.1c2.91.06,5.81,0,8.72,0,1.67,0,2.45.66,2.44,2.43q-.06,17.73,0,35.45c0,1.51-.6,2.06-2.08,2-3.09,0-6.2.12-9.29-.11a2.87,2.87,0,0,1-1.88-2,71.61,71.61,0,0,1,.19-8.41c.12-1.89-.32-3-2.5-2.86-2.51.12-5,.12-7.55,0-2.07-.07-2.67.87-2.6,2.82.11,3.37,0,6.75,0,10.53-4.08,0-7.91.08-11.72-.09-.52,0-1.41-1.28-1.42-2q-.15-17.87,0-35.74A2.68,2.68,0,0,1,147.53.21a71.22,71.22,0,0,1,9.58,0c.66.05,1.68,1.39,1.76,2.21C159.17,5.88,159.18,9.35,159.51,13Z"/><path class="cls-1" d="M197.65.14c9.09,0,17.9,0,26.7-.07,2.35,0,3.35.66,3.24,3.11-.14,3.17,0,6.35,0,10.12-3.25,0-6.3.1-9.34,0-2.16-.08-2.88.74-2.85,2.88.09,6.87,0,13.73,0,20.6,0,1-.08,1.89-.14,3.22-3.81,0-7.46.13-11.09-.13-.59,0-1.52-1.73-1.53-2.67-.12-6.86-.14-13.73,0-20.6.06-2.54-.73-3.5-3.3-3.28-2.21.19-4.45,0-6.67.05-1.66,0-2.45-.44-2.31-2.35a64.7,64.7,0,0,0,0-8.12c-.11-2.22.83-3,2.93-2.78C194.65.2,196,.13,197.65.14Z"/><path class="cls-1" d="M292.37.15c6.52.16,6-1.14,6,5.71,0,6.09.09,12.19,0,18.28,0,2,.69,2.73,2.69,2.67,4.45-.12,8.91,0,13.35-.12,2.21-.08,2.92.76,2.83,2.85-.11,2.7-.09,5.42,0,8.12,0,1.52-.34,2.36-2.06,2.35q-13.94-.06-27.86,0c-1.72,0-2.09-.82-2.09-2.34,0-11.7,0-23.41-.09-35.11,0-2,.81-2.58,2.6-2.49C289.19.15,290.64.13,292.37.15Z"/><path class="cls-1" d="M67.08,67.08c-2.16.26-2.74-.57-2.77-2.46-.1-6.82-.17-6.81,6.6-6.83,1.41,0,2.82-.12,4.23-.18l.38-.77c-1.85-1.52-3.52-3.36-5.58-4.49-4.79-2.63-6.08-6.51-5.62-11.71.23-2.58.7-3.5,3.43-3.43,6.86.19,13.74,0,20.61.07,1,0,2.09.09,3.58.17,0,3,.12,5.93-.11,8.79,0,.57-1.37,1.44-2.16,1.49-2.82.18-5.67.07-8.5.07l-.42.9c1.13,1,2.22,2.13,3.4,3.11A18.67,18.67,0,0,0,87.22,54c4.79,2.5,5.15,6.81,4.58,11.38-.08.63-1.55,1.54-2.4,1.55C82.05,67.08,74.7,67.05,67.08,67.08Z"/><path class="cls-1" d="M96.79,60.51c-.25-1.93.26-2.76,2.15-2.68,2.92.13,5.84,0,8.76,0L108,56.7c-2.56-1.94-5-4-7.7-5.79-2.85-1.89-4-4.09-3.64-7.72.67-5.87.38-5.91,6.4-5.92,6.19,0,12.38.06,18.56-.06,2.08,0,2.89.5,2.9,2.74,0,7.89.12,7.88-7.68,7.86-1,0-2,.11-3.06.16l-.42.77c1.22,1.08,2.41,2.19,3.65,3.24a12.41,12.41,0,0,0,2.78,2.07c5.28,2.35,4.74,6.93,4.41,11.38a2.24,2.24,0,0,1-1.6,1.47c-8,.11-16,.14-24.08,0-.62,0-1.59-1.29-1.76-2.11A19.4,19.4,0,0,1,96.79,60.51Z"/><path class="cls-1" d="M413.41,41.76c-.51,6.05-.51,6-6.35,6.07-1.48,0-2.95.13-4.43.21l-.3.85c2.27,1.83,4.31,4.07,6.84,5.41,5.06,2.69,3.94,7.2,3.9,11.41,0,.43-1.19,1.2-1.83,1.21-7.84.09-15.68.07-23.51.07-.29,0-.68.09-.85-.06-2.51-2.18-.52-5-1-7.55-.08-.4,1.3-1.5,2.05-1.55,2.84-.19,5.7-.07,8.55-.07l.41-1c-1.56-1.31-3.08-2.65-4.67-3.92a51.37,51.37,0,0,1-4.55-3.56,6.06,6.06,0,0,1-1.85-3.48c-.36-8.49-.29-8.49,8.09-8.5l15.1,0C413.21,37.25,413.21,37.25,413.41,41.76Z"/><path class="cls-1" d="M44,52.26c.09,6.43-.9,5.28,6.69,5.5,1.91.06,3.82.11,5.72,0s3.2.32,3.13,2.49c-.23,8,1.34,6.73-6.6,6.78-6,0-12-.08-18,0-2.49,0-3.06-.85-2.74-4.07a99.17,99.17,0,0,0,0-21.58c-.48-4,.45-4.48,4.27-4.08a87.14,87.14,0,0,0,18.48,0c3.58-.39,4.69-.05,4.66,2.7-.09,7.7,0,7.71-7.8,7.74H48.08C44,47.79,44,47.79,44,52.26Z"/><path class="cls-1" d="M362.16,67.05h-8.65c0-3.21-.12-6,.1-8.77.05-.61,1.28-1.58,2-1.61,3.77-.16,7.55-.15,11.32,0,1.91,0,2.56-.65,2.53-2.53-.09-4.84,0-9.68-.08-14.52,0-1.76.52-2.46,2.32-2.36,2.12.11,4.26.06,6.38,0,1.68,0,2.51.57,2.51,2.35q0,12.76,0,25.54c0,1.85-1.08,1.93-2.48,1.92C372.91,67,367.68,67,362.16,67.05Z"/></g></g></svg>