<svg xmlns="http://www.w3.org/2000/svg" viewBox="0 0 461.76 237.04"><defs><style>.cls-1{fill:#1d1d1b;}</style></defs><g id="Camada_2" data-name="Camada 2"><g id="Layer_1" data-name="Layer 1"><path class="cls-1" d="M143.92,198.17c-.11-1.38-.14-4.51-.14-4.51l-.26-2.4c-.09-1.3-.14-4.39-.14-4.39.1-1.66,0-4,0-4-1.08-8.29-2.32-16.56-3.27-24.86-.8-6.89-1.27-13.82-1.88-20.73-.75-8.44-1.52-16.87-2.24-25.32-.45-5.28-.79-10.57-1.25-15.85-.71-8.06-1.51-16.1-2.22-24.16q-1-11.08-1.8-22.18c-.76-9.8-1.45-19.6-2.24-29.39l-.08-3.26a16.18,16.18,0,0,1-1-4.84l-.14-1.84c-.11-2.47-.22-4.93-.2-7.89,1-1,1.82-1.95,2.68-2C134.41.46,139,.54,143.64.53Q237.39.31,331.14,0c3,0,4.64.53,4.51,3.76-.12,3.4-.24,6.8-.64,10.53a78.49,78.49,0,0,0-.79,8.12c-.18,3.63-.38,7-.58,10.37-.25,4-.38,8.11-.76,12.14C332,54,331,63.13,330.17,72.25c-.69,7.3-1.2,14.61-1.89,21.91-.86,9.21-1.9,18.41-2.73,27.62-.71,7.88-1.14,15.78-1.85,23.66-1.1,12.1-2.34,24.18-3.51,36.27-.91,9.91-1.83,19.83-2.69,29.75a2.87,2.87,0,0,1-2.42,3c-12.21,3.3-24.38,6.72-36.57,10.09-14.43,4-28.88,7.87-43.27,12-5,1.43-9.53-.46-14.14-1.68-8.38-2.22-16.71-4.61-25-7-8-2.25-15.94-4.58-23.92-6.81-7.62-2.12-15.2-4.41-22.91-6.12-3.44-.76-4.55-2.27-4.18-5.47.08-.76,0-1.55.07-2.84-.3-3.17-.75-5.82-1.19-8.47m66.8-101.69c-3.49,0-7-.14-10.46,0-2.68.14-3.79-.73-4-3.54-.43-6.56-1.16-13.11-1.83-19.65-.37-3.55-.42-3.56,3.21-3.56l80.79,0c4.56,0,9.11-.1,13.66,0,2,0,3-.55,3.15-2.73.5-6.85,1.09-13.7,1.83-20.53.27-2.56-.41-3.39-3.07-3.36-11.81.15-23.63.1-35.45.09q-44.91,0-89.81-.11c-2,0-3.87-.28-3.52,2.93,1,9.14,1.73,18.3,2.58,27.45,1.39,14.84,2.94,29.66,4.12,44.51.44,5.56.75,4.7,5.27,4.69l82.83-.06c3.37,0,3.61.35,3.29,3.71-.81,8.57-1.62,17.14-2.32,25.72-.38,4.58-.29,4.58-4.71,5.77-7.08,1.92-14.13,4-21.25,5.7a15.24,15.24,0,0,1-7.06.29c-8.31-2.13-16.53-4.6-24.73-7.11-.72-.22-1.44-1.61-1.54-2.53-.57-5.38-1-10.79-1.36-16.19-.13-1.84-.86-2.46-2.71-2.43-7.17.08-14.34.11-21.51,0-2.52,0-3,1.07-2.68,3.18.38,2.88.73,5.76,1,8.65.77,9.06,1.52,18.13,2.2,27.2a3.15,3.15,0,0,0,2.6,3.28c4.47,1.22,8.88,2.65,13.33,3.91,10,2.84,20.05,5.8,30.16,8.34,3.55.89,7,3.06,11,1.66,2.63-.93,5.36-1.6,8.06-2.35,13.3-3.68,26.58-7.39,39.91-11,2.94-.79,4.14-2.36,4.37-5.45,1.17-15.83,2.52-31.65,3.87-47.46q1.1-12.87,2.42-25.72c.27-2.6-.59-3.28-3.17-3.28C263.22,96.53,237.26,96.48,210.72,96.48Z"/><path class="cls-1" d="M128.1,21.84h.51c.79,9.79,1.37,18.16,2.13,28,.57,7.4,1.15,14.8,1.8,22.19.7,8,1.51,16.1,2.22,24.16.46,5.28.8,10.57,1.25,15.85.72,8.44,1.49,16.88,2.24,25.32.61,6.91,1.08,13.83,1.87,20.72,1,8.3,3.17,24,3.17,24l-.33.16-.63.09s-4.1,1.06-4.18,1.07q-14.84,4.47-29.74,8.7-14.09,4-28.21,7.8a8.34,8.34,0,0,1-4.18,0c-19.75-5.43-39.46-11-59.21-16.39-1.84-.51-2.72-1.25-2.89-3.27-1-12.52-2.24-25-3.34-37.55-1.95-22-3.84-43.93-5.8-65.89C3.25,59.57,1.71,42.43.05,25.3-.2,22.69.46,22,3.09,22Q59.3,22.1,115.5,22c3.38,0,6.75.07,10.13-.05l1.7-.1M78.75,95.33c-3.09,0-6.2,0-9.29,0-1.51,0-2.1.53-2,2,.16,4.93.36,9.86.35,14.8,0,2.37,1,2.9,3.18,2.87,7.46-.11,14.92,0,22.38-.11,2.2,0,2.89.76,2.74,2.89-.5,7.14-.8,14.3-1.44,21.43-.08.93-1.48,2.19-2.52,2.52-3.86,1.21-7.79,2.19-11.74,3.07-2.21.49-4.61,1.18-6.73.77-4.23-.83-8.33-2.38-12.48-3.61-4.47-1.32-4.58-1.3-4.76-6-.1-2.46-1-3.45-3.52-3.38-4.36.13-8.72.15-13.08,0-2.32-.1-2.78.79-2.62,2.88.46,5.69.85,11.38,1.06,17.08.07,2.05,1.24,2.66,2.78,3.14,9.51,2.9,19,5.88,28.55,8.62,2.62.76,5.65,1.67,8.12,1,10.84-2.78,21.51-6.21,32.32-9.14,2.92-.79,3.76-2.23,3.92-5.06.72-12.74,1.67-25.47,2.4-38.22a5,5,0,0,0-1.39-3.36,65.08,65.08,0,0,0-5.61-4.6,24.35,24.35,0,0,1,3.3-2.49c2.95-1.48,3.88-4,4.09-7,.77-11.29,1.63-22.58,2.45-33.87.15-2,.29-4,.46-6.32h-4.06l-74.09,0a26.45,26.45,0,0,0-4.63.07C36.12,55.36,35,56.42,35,57c.57,7.81,1.34,15.6,2,23.4.15,1.83,1.06,2.21,2.67,2.15,3.09-.09,6.19-.07,9.29-.09,6.35,0,6.42,0,6.37-6.41,0-2,.48-2.77,2.58-2.76q18.59.11,37.19,0c2.07,0,2.74.74,2.59,2.74-.43,5.79-.82,11.58-1.09,17.37-.08,1.81-1,2-2.44,2C89.21,95.31,84.27,95.34,78.75,95.33Z"/><path class="cls-1" d="M320.39,181.88c1-12.26,2.21-24.34,3.31-36.44.71-7.88,1.14-15.78,1.85-23.66.83-9.21,1.87-18.41,2.73-27.62.69-7.3,1.2-14.61,1.89-21.91C331,63.13,332,54,332.88,44.92c.38-4,.51-8.09.76-12.14.2-3.37.4-6.74.7-10.38a1.37,1.37,0,0,1,.78-.42c14.42-.08,28.84-.21,43.27-.23q39.94-.08,79.88-.05c3.41,0,3.72.48,3.39,3.9-.87,8.95-1.6,17.92-2.45,26.87s-1.79,18.09-2.65,27.14q-1.05,11-2,22-2.82,32.24-5.61,64.47c-.35,4.14-.71,8.29-1,12.44-.16,2.62-1.54,3.89-4,4.57-12.2,3.34-24.35,6.79-36.53,10.18-7.25,2-14.44,4.34-21.8,5.82-2.9.59-6.26-.47-9.29-1.27-8.86-2.33-17.66-4.89-26.48-7.39-9.77-2.76-19.52-5.56-29.48-8.51M378,150.71c4.32,1.42,8.62,2.89,13,4.21,1.81.55,3.86,1.39,5.55,1,8.75-2,17.42-4.45,26.14-6.63,1.9-.48,2.62-1.4,2.84-3.36,1.39-12.3,2.94-24.59,4.4-36.89.61-5.15,1.15-10.31,1.77-16h-5.35c-11.53,0-23.06-.08-34.58,0-2.33,0-3.1-.67-2.86-3,.43-4,.79-8.1.92-12.16.07-2.47.9-3.25,3.45-3.22,11.62.16,23.24.08,34.87.1,6.08,0,6.08,0,6.95-5.86.12-.76.25-1.53.35-2.3.37-2.92.74-5.84,1.16-9.11H394.29c-6,0-12,.07-18,0-1.88,0-2.47.6-2.57,2.48-.24,4.63-.77,9.25-1.13,13.89-.83,10.81-1.57,21.62-2.45,32.43-.37,4.58-.49,4.55,4.06,4.56q17,0,34,.05c3.9,0,3.92,0,3.54,3.8-.48,4.81-.89,9.64-1.52,14.43-.83,6.43-.9,6.47-7.21,8-2.33.55-4.8,1.42-7.07,1.1a36.37,36.37,0,0,1-8.77-2.94,3.46,3.46,0,0,1-1.65-2.5,32.22,32.22,0,0,1,.3-5.79c.17-1.66-.29-2.55-2.16-2.54-4.36,0-8.72-.14-13.07,0a2.89,2.89,0,0,0-2,1.92q-1,9.39-1.46,18.82a3.22,3.22,0,0,0,1.63,2.46c2.86,1.16,5.85,2,9.24,3.08M363.42,61c.78-2.86-.36-3.72-3.22-3.56-3.95.22-7.93.09-11.9,0-1.6,0-2.18.57-2.28,2.18-1.36,22.11-2.81,44.22-4.16,66.34-.46,7.45-.37,7.42-7.42,9.5-.86.26-2.11,1.16-2.17,1.85-.47,5.27-.68,10.56-1,16,.87-.11,1.35-.11,1.8-.22,6.63-1.75,13.26-3.48,19.88-5.27,4.8-1.3,4.75-1.34,5-6.41q.33-7.25.83-14.49C360.3,105.17,361.86,83.36,363.42,61Z"/></g></g></svg>